<svg width="244" height="100" viewBox="0 0 244 100" fill="none" xmlns="http://www.w3.org/2000/svg">
<path d="M29.4537 44.7629C29.4537 41.2629 26.9387 38.8459 23.1417 38.8459C19.3397 38.8459 16.8237 41.2629 16.8237 44.7629C16.8237 48.2159 19.3397 50.6319 23.1417 50.6319C26.9387 50.6319 29.4537 48.2159 29.4537 44.7629ZM22.9437 51.8199C20.1307 51.3719 18.5007 50.5329 17.7147 49.4969V67.7989C17.7147 74.1639 26.5427 73.622 27.0377 76.778C27.2357 78.111 26.7407 79.4919 24.6677 79.4919C21.2667 79.4919 20.9177 73.57 14.6047 73.57C8.19369 73.57 6.41769 80.3819 7.15669 85.7569H8.29269C8.29269 83.5849 8.68869 82.252 10.8547 82.252C13.3237 82.252 14.3607 86.153 19.2407 86.153C24.1257 86.153 28.5167 83.882 28.5167 75.398V55.7159C28.5167 52.2099 25.5577 52.2099 22.9437 51.8199V51.8199ZM62.3057 72.6839V45.9969H51.5037V67.111C51.4047 68.789 50.9617 69.9709 49.6287 70.4139C46.7177 71.3039 44.1547 69.9239 45.6807 59.7629C46.3267 55.4189 46.8167 51.1739 44.4517 48.1689C40.3057 42.9399 31.7227 46.7359 28.4207 51.0799L29.1597 51.8669C30.7387 50.3349 32.3637 49.9449 33.6447 51.0799C35.5717 52.7569 35.3217 55.5179 34.6807 59.4659C33.4517 67.1579 37.8427 72.8819 46.3737 72.8819C51.2587 72.8819 53.7227 67.8509 58.8057 68.8879C60.1397 69.1839 61.0767 70.2159 61.0767 72.6839H62.3057V72.6839ZM68.3717 39.2359V72.6839H79.1797V47.1789C79.1797 40.7679 69.6067 46.0959 69.6067 39.2359H68.3717V39.2359ZM85.2457 72.6839H96.0477V55.7159C96.0477 52.2099 93.0897 52.2099 90.4747 51.8199C87.6627 51.3719 86.0327 50.5329 85.2457 49.4969V72.6839V72.6839ZM96.9857 44.7629C96.9857 41.2629 94.4697 38.8459 90.6727 38.8459C86.8707 38.8459 84.3557 41.2629 84.3557 44.7629C84.3557 48.2159 86.8707 50.6319 90.6727 50.6319C94.4697 50.6319 96.9857 48.2159 96.9857 44.7629ZM119.088 45.6529C113.411 45.6529 110.306 49.2049 107.197 49.2049C105.567 49.2049 105.025 47.8199 105.025 45.9969H103.744C102.853 54.1839 104.879 56.7519 109.072 56.7519C115.484 56.7519 113.213 48.1169 116.473 47.1789C119.577 46.2939 121.109 48.4659 119.926 57.3929C118.64 57.2419 117.26 57.1949 115.734 57.1949C106.504 57.1949 102.015 59.9079 102.015 65.0389C102.015 70.1169 106.015 72.8819 114.796 72.8819C118.937 72.8819 120.218 71.5489 120.515 69.6739C124.364 75.7939 133.588 71.9919 137.041 67.4079L136.301 66.6169C134.723 68.1949 133.093 68.5389 131.812 67.4079C129.89 65.7309 130.135 62.9659 130.775 59.0179C132.01 51.3249 127.572 45.6529 119.088 45.6529V45.6529ZM119.234 64.0539C119.234 67.0589 119.629 70.4659 118.442 71.0069C116.52 71.9449 114.4 70.5129 112.624 66.0229C111.244 62.6219 111.489 59.8559 113.411 58.9189C114.796 58.2309 117.213 58.1789 119.775 58.5279V58.7259C119.478 60.5489 119.28 62.3719 119.234 64.0539Z" fill="#1A202C"/>
<path d="M136.943 45.9969V72.684H147.745V52.018C147.797 50.044 148.188 48.565 149.62 48.117C152.531 47.179 155.094 48.611 153.568 58.726C152.927 63.065 152.432 67.309 154.797 70.315C158.995 75.544 167.526 71.747 170.834 67.408L170.094 66.617C168.516 68.195 166.886 68.539 165.604 67.408C163.677 65.731 163.974 62.966 164.568 59.018C165.802 51.325 161.412 45.653 152.875 45.653C149.078 45.653 146.412 48.908 143.505 49.596C140.641 50.289 138.177 49.9919 138.177 45.9969H136.943V45.9969Z" fill="#1A202C"/>
<path d="M187.605 45.653C181.928 45.653 178.824 49.205 175.715 49.205C174.084 49.205 173.543 47.82 173.543 45.997H172.261C171.371 54.184 173.397 56.752 177.59 56.752C184.001 56.752 181.73 48.117 184.991 47.179C188.095 46.294 189.626 48.466 188.444 57.393C187.157 57.242 185.777 57.195 184.251 57.195C175.022 57.195 170.532 59.908 170.532 65.039C170.532 70.117 174.532 72.882 183.314 72.882C187.454 72.882 188.735 71.549 189.032 69.674C192.881 75.794 202.105 71.992 205.558 67.408L204.819 66.617C203.241 68.195 201.61 68.539 200.329 67.408C198.407 65.731 198.652 62.966 199.293 59.018C200.527 51.325 196.09 45.653 187.605 45.653V45.653ZM187.751 64.054C187.751 67.059 188.147 70.466 186.959 71.007C185.037 71.945 182.918 70.513 181.142 66.023C179.761 62.622 180.006 59.856 181.928 58.919C183.314 58.231 185.73 58.179 188.293 58.528V58.726C187.996 60.549 187.798 62.372 187.751 64.054V64.054ZM167.858 26.184L171.952 21.741L171.347 21.184L166.577 26.361L174.754 33.903L175.431 33.168L171.649 29.679L175.353 25.663L174.738 25.095L171.035 29.111L167.858 26.184V26.184ZM178.817 18.941C178.588 19.0945 178.393 19.2925 178.242 19.5233C178.092 19.7541 177.99 20.0128 177.942 20.284L178.031 21.534L177.182 20.243L176.343 20.79L181.02 27.92L181.854 27.373L179.234 23.368C177.984 21.467 178.401 20.097 179.703 19.378L179.27 18.717C179.108 18.7669 178.955 18.8425 178.817 18.941V18.941ZM185.705 15.779C183.147 16.659 182.429 18.998 183.241 21.378C184.054 23.743 186.054 25.154 188.611 24.274C191.173 23.399 191.892 21.06 191.085 18.696C190.267 16.316 188.267 14.904 185.705 15.779V15.779ZM188.356 23.529C186.679 24.102 185.033 23.217 184.283 21.024C183.528 18.826 184.288 17.118 185.97 16.545C187.647 15.972 189.293 16.852 190.043 19.05C190.798 21.248 190.038 22.956 188.356 23.529ZM200.728 16.26C200.541 14.698 199.494 13.729 197.687 13.76C196.739 13.776 195.984 14.047 195.301 14.75L194.864 15.677L194.838 14.031L193.838 14.047L193.978 22.573L194.978 22.557L194.911 18.318C194.864 15.661 196.088 14.609 197.51 14.583C198.942 14.562 199.598 15.375 199.734 16.531C199.77 16.969 199.775 17.338 199.786 17.823L199.859 22.479L200.859 22.463L200.781 17.693C200.77 17 200.765 16.693 200.728 16.26V16.26ZM206.292 15.812L207.875 16.182L208.052 15.432L206.469 15.062L206.896 13.224L205.922 13L205.495 14.833L204.427 14.588L204.25 15.338L205.318 15.588L204.099 20.817C203.99 21.286 203.917 21.599 203.87 21.885C203.735 22.817 204.125 23.338 205.052 23.552C205.381 23.63 205.73 23.692 206.078 23.708L206.245 22.984C205.094 22.869 204.797 22.583 204.922 21.77C204.959 21.547 205 21.375 205.078 21.026L206.292 15.812V15.812ZM218.327 29.516L213.259 25.937L215.754 22.406L220.348 25.651L220.832 24.969L216.233 21.724L218.728 18.193L223.666 21.682L224.14 21.01L218.384 16.943L211.968 26.031L217.853 30.187L218.327 29.516ZM227.932 33.102C229.089 32.034 229.26 30.623 228.177 29.175C227.609 28.415 226.948 27.961 225.979 27.821L224.974 28.008L226.292 27.024L225.693 26.227L218.859 31.331L219.458 32.133L222.854 29.592C224.984 27.998 226.552 28.378 227.406 29.513C228.266 30.665 227.99 31.67 227.13 32.456C226.797 32.743 226.5 32.967 226.115 33.253L222.385 36.045L222.984 36.842L226.802 33.987C227.359 33.571 227.604 33.388 227.932 33.102V33.102ZM237.479 41.651L237.161 40.708L232.624 42.234L233.322 41.437C233.64 40.771 233.624 39.906 233.354 39.115C232.666 37.068 230.635 35.745 227.703 36.734C225.307 37.542 224.005 39.479 224.765 41.74C225.078 42.672 225.609 43.38 226.364 43.75L227.432 43.99L225.932 44.495L226.249 45.437L237.479 41.651ZM225.562 41.625C224.963 39.854 226.239 38.385 228.176 37.729C230.359 36.995 232.046 37.755 232.593 39.37C232.994 40.562 232.682 42.213 230.39 42.99L229.781 43.193C227.338 44.021 226.046 43.062 225.562 41.625ZM237.088 58.309C237.213 57.825 237.255 57.57 237.349 56.997L237.88 53.737L226.906 51.945L226.38 55.158C226.292 55.716 226.245 56.002 226.213 56.57C226.135 58.763 227.568 61.216 231.031 61.783C234.531 62.356 236.469 60.497 237.088 58.309V58.309ZM227.057 56.612C227.068 56.169 227.125 55.789 227.213 55.247L227.573 53.07L236.896 54.591L236.531 56.815C236.437 57.388 236.38 57.737 236.276 58.08C235.724 59.851 234.026 61.158 231.208 60.7C228.364 60.237 227.031 58.471 227.057 56.612V56.612ZM225.328 70.429C227.395 71.554 229.661 71.366 230.796 69.273C231.864 67.304 231.135 64.96 228.729 63.653C226.093 62.226 224 62.976 222.984 64.846C222.166 66.351 222.244 68.169 223.796 69.471L224.291 68.549C223.208 67.611 223.078 66.33 223.645 65.278C224.307 64.059 225.692 63.366 227.958 64.465L224.875 70.148C225.088 70.299 225.229 70.377 225.328 70.429V70.429ZM230.104 68.856C229.421 70.122 228.02 70.606 226.036 69.658L228.651 64.84C230.453 65.986 230.776 67.627 230.104 68.856V68.856ZM221.487 80.42L222.237 79.67L218.717 72.181L226.227 75.681L227.003 74.905L218.659 71.186L217.779 72.066L221.487 80.42V80.42Z" fill="#1A202C"/>
</svg>
